%TF.GenerationSoftware,KiCad,Pcbnew,10.0.3*%
%TF.CreationDate,2026-06-24T18:19:03+05:30*%
%TF.ProjectId,usb hub,75736220-6875-4622-9e6b-696361645f70,rev?*%
%TF.SameCoordinates,Original*%
%TF.FileFunction,Copper,L2,Bot*%
%TF.FilePolarity,Positive*%
%FSLAX46Y46*%
G04 Gerber Fmt 4.6, Leading zero omitted, Abs format (unit mm)*
G04 Created by KiCad (PCBNEW 10.0.3) date 2026-09-24 18:19:03*
%MOMM*%
%LPD*%
G01*
G04 APERTURE LIST*
%TA.AperFunction,ComponentPad*%
%ADD10O,1.000000X2.100000*%
%TD*%
%TA.AperFunction,ComponentPad*%
%ADD11O,1.000000X1.600000*%
%TD*%
%TA.AperFunction,ComponentPad*%
%ADD12R,1.524000X1.524000*%
%TD*%
%TA.AperFunction,ComponentPad*%
%ADD13C,1.524000*%
%TD*%
%TA.AperFunction,ComponentPad*%
%ADD14C,2.600000*%
%TD*%
%TA.AperFunction,ComponentPad*%
%ADD15R,1.600000X1.600000*%
%TD*%
%TA.AperFunction,ComponentPad*%
%ADD16C,1.600000*%
%TD*%
%TA.AperFunction,ComponentPad*%
%ADD17R,2.800000X1.600000*%
%TD*%
%TA.AperFunction,ViaPad*%
%ADD18C,0.600000*%
%TD*%
%TA.AperFunction,Conductor*%
%ADD19C,0.200000*%
%TD*%
G04 APERTURE END LIST*
D10*
%TO.P,J1,SH,SHIELD_SH*%
%TO.N,unconnected-(J1-SHIELD-PadSH)*%
X142320000Y-77605000D03*
D11*
X142320000Y-73425000D03*
D10*
X133680000Y-77605000D03*
D11*
X133680000Y-73425000D03*
%TD*%
D12*
%TO.P,USB3,1,VCC_1*%
%TO.N,+5V*%
X136017500Y-95937500D03*
D13*
%TO.P,USB3,2,D-_2*%
%TO.N,Net-(U1-DM1)*%
X138517500Y-95937500D03*
%TO.P,USB3,3,D+_3*%
%TO.N,Net-(U1-DP1)*%
X140517500Y-95937500D03*
%TO.P,USB3,4,GND_4*%
%TO.N,GND*%
X143017500Y-95937500D03*
D14*
%TO.P,USB3,5,5_5*%
X146517500Y-98637500D03*
%TO.P,USB3,6,6_6*%
X132517500Y-98637500D03*
%TD*%
D12*
%TO.P,USB2,1,VCC_1*%
%TO.N,+5V*%
X118517500Y-95937500D03*
D13*
%TO.P,USB2,2,D-_2*%
%TO.N,Net-(U1-DM2)*%
X121017500Y-95937500D03*
%TO.P,USB2,3,D+_3*%
%TO.N,Net-(U1-DP2)*%
X123017500Y-95937500D03*
%TO.P,USB2,4,GND_4*%
%TO.N,GND*%
X125517500Y-95937500D03*
D14*
%TO.P,USB2,5,5_5*%
X129017500Y-98637500D03*
%TO.P,USB2,6,6_6*%
X115017500Y-98637500D03*
%TD*%
D15*
%TO.P,USB1,1,VCC_1*%
%TO.N,Net-(D1-A)*%
X165500000Y-81750000D03*
D16*
%TO.P,USB1,2,D-_2*%
%TO.N,Net-(U1-DM)*%
X165500000Y-84250000D03*
%TO.P,USB1,3,D+_3*%
%TO.N,Net-(U1-DP)*%
X165500000Y-86250000D03*
%TO.P,USB1,4,GND_4*%
%TO.N,GND*%
X165500000Y-88750000D03*
D17*
%TO.P,USB1,5,5_5*%
X167500000Y-79450000D03*
%TO.P,USB1,6,6_6*%
X167500000Y-91050000D03*
%TD*%
D18*
%TO.N,GND*%
X124300000Y-90000000D03*
X162300000Y-95500000D03*
%TD*%
%TO.N,+5V*%
D19*
X153685000Y-78270000D02*
X136017500Y-95937500D01*
X155180000Y-78270000D02*
X153685000Y-78270000D01*
%TO.N,GND*%
X125517500Y-95937500D02*
X125517500Y-91217500D01*
X122817500Y-98637500D02*
X115017500Y-98637500D01*
X166600000Y-86705635D02*
X166600000Y-80350000D01*
X141955000Y-97000000D02*
X134155000Y-97000000D01*
X120577605Y-96999500D02*
X156306135Y-96999500D01*
X129017500Y-98637500D02*
X128217500Y-98637500D01*
X134800000Y-78735552D02*
X134800000Y-78245000D01*
X141200000Y-78894999D02*
X140899999Y-79195000D01*
X128217500Y-98637500D02*
X125517500Y-95937500D01*
X155180000Y-77000000D02*
X153823628Y-77000000D01*
X135259448Y-79195000D02*
X134800000Y-78735552D01*
X156306135Y-96999500D02*
X166600000Y-86705635D01*
X119955500Y-96377395D02*
X120577605Y-96999500D01*
X153823628Y-77000000D02*
X141823628Y-89000000D01*
X119955500Y-92930285D02*
X119955500Y-96377395D01*
X141200000Y-78245000D02*
X141200000Y-78894999D01*
X143817500Y-95937500D02*
X143017500Y-95937500D01*
X125517500Y-91217500D02*
X124300000Y-90000000D01*
X143017500Y-95937500D02*
X141955000Y-97000000D01*
X123885785Y-89000000D02*
X119955500Y-92930285D01*
X146517500Y-98637500D02*
X143817500Y-95937500D01*
X125517500Y-95937500D02*
X122817500Y-98637500D01*
X140899999Y-79195000D02*
X135259448Y-79195000D01*
X132517500Y-98637500D02*
X129017500Y-98637500D01*
X134155000Y-97000000D02*
X132517500Y-98637500D01*
X166600000Y-80350000D02*
X167500000Y-79450000D01*
X141823628Y-89000000D02*
X123885785Y-89000000D01*
%TO.N,Net-(U1-DP3)*%
X138750000Y-77562590D02*
X140332346Y-75980244D01*
X160340000Y-76320000D02*
X160920000Y-75740000D01*
X137750000Y-77562590D02*
X137750000Y-78245000D01*
X140332346Y-75980244D02*
X154007500Y-75980244D01*
X138482410Y-77295000D02*
X138017590Y-77295000D01*
X138750000Y-77562590D02*
X138482410Y-77295000D01*
X138017590Y-77295000D02*
X137750000Y-77562590D01*
X138750000Y-78245000D02*
X138750000Y-77562590D01*
X154007500Y-75980244D02*
X154347256Y-76320000D01*
X154347256Y-76320000D02*
X160340000Y-76320000D01*
%TO.N,unconnected-(J1-SHIELD-PadSH)*%
X133680000Y-77605000D02*
X133680000Y-78181237D01*
X142320000Y-73425000D02*
X133680000Y-73425000D01*
X142320000Y-78340685D02*
X142320000Y-77605000D01*
X133680000Y-73425000D02*
X133680000Y-77605000D01*
X133680000Y-78181237D02*
X135093763Y-79595000D01*
X141065685Y-79595000D02*
X142320000Y-78340685D01*
X135093763Y-79595000D02*
X141065685Y-79595000D01*
%TO.N,Net-(U1-DM1)*%
X154347256Y-78960000D02*
X138517500Y-94789756D01*
X138517500Y-94789756D02*
X138517500Y-95937500D01*
X160920000Y-79540000D02*
X160340000Y-78960000D01*
X160340000Y-78960000D02*
X154347256Y-78960000D01*
%TO.N,Net-(U1-DP2)*%
X123017500Y-90433971D02*
X123017500Y-95937500D01*
X124051471Y-89400000D02*
X123017500Y-90433971D01*
X160340000Y-77690000D02*
X153699314Y-77690000D01*
X153699314Y-77690000D02*
X141989314Y-89400000D01*
X160920000Y-78270000D02*
X160340000Y-77690000D01*
X141989314Y-89400000D02*
X124051471Y-89400000D01*
%TO.N,Net-(U1-DP)*%
X164937256Y-86250000D02*
X165500000Y-86250000D01*
X158227256Y-79540000D02*
X164937256Y-86250000D01*
X155180000Y-79540000D02*
X158227256Y-79540000D01*
%TD*%
M02*
