%TF.GenerationSoftware,KiCad,Pcbnew,10.0.3*%
%TF.CreationDate,2026-06-24T18:19:03+05:30*%
%TF.ProjectId,usb hub,75736220-6875-4622-9e6b-696361645f70,rev?*%
%TF.SameCoordinates,Original*%
%TF.FileFunction,Soldermask,Top*%
%TF.FilePolarity,Negative*%
%FSLAX46Y46*%
G04 Gerber Fmt 4.6, Leading zero omitted, Abs format (unit mm)*
G04 Created by KiCad (PCBNEW 10.0.3) date 2026-09-24 18:19:03*
%MOMM*%
%LPD*%
G01*
G04 APERTURE LIST*
G04 Aperture macros list*
%AMRoundRect*
0 Rectangle with rounded corners*
0 $1 Rounding radius*
0 $2 $3 $4 $5 $6 $7 $8 $9 X,Y pos of 4 corners*
0 Add a 4 corners polygon primitive as box body*
4,1,4,$2,$3,$4,$5,$6,$7,$8,$9,$2,$3,0*
0 Add four circle primitives for the rounded corners*
1,1,$1+$1,$2,$3*
1,1,$1+$1,$4,$5*
1,1,$1+$1,$6,$7*
1,1,$1+$1,$8,$9*
0 Add four rect primitives between the rounded corners*
20,1,$1+$1,$2,$3,$4,$5,0*
20,1,$1+$1,$4,$5,$6,$7,0*
20,1,$1+$1,$6,$7,$8,$9,0*
20,1,$1+$1,$8,$9,$2,$3,0*%
G04 Aperture macros list end*
%ADD10RoundRect,0.250000X-1.050000X-0.550000X1.050000X-0.550000X1.050000X0.550000X-1.050000X0.550000X0*%
%ADD11C,0.650000*%
%ADD12RoundRect,0.150000X0.150000X0.500000X-0.150000X0.500000X-0.150000X-0.500000X0.150000X-0.500000X0*%
%ADD13RoundRect,0.075000X0.075000X0.575000X-0.075000X0.575000X-0.075000X-0.575000X0.075000X-0.575000X0*%
%ADD14O,1.000000X2.100000*%
%ADD15O,1.000000X1.600000*%
%ADD16R,1.524000X1.524000*%
%ADD17C,1.524000*%
%ADD18C,2.600000*%
%ADD19RoundRect,0.250000X-0.587500X-1.625000X0.587500X-1.625000X0.587500X1.625000X-0.587500X1.625000X0*%
%ADD20RoundRect,0.250000X-0.262500X-0.450000X0.262500X-0.450000X0.262500X0.450000X-0.262500X0.450000X0*%
%ADD21C,1.000000*%
%ADD22R,1.600000X1.600000*%
%ADD23C,1.600000*%
%ADD24R,2.800000X1.600000*%
%ADD25O,1.745000X0.560000*%
G04 APERTURE END LIST*
D10*
%TO.C,C2*%
X120700000Y-90000000D03*
X124300000Y-90000000D03*
%TD*%
D11*
%TO.C,J1*%
X140890000Y-77105000D03*
X135110000Y-77105000D03*
D12*
X141200000Y-78245000D03*
X140400000Y-78245000D03*
D13*
X139250000Y-78245000D03*
X138250000Y-78245000D03*
X137750000Y-78245000D03*
X136750000Y-78245000D03*
D12*
X135600000Y-78245000D03*
X134800000Y-78245000D03*
X134800000Y-78245000D03*
X135600000Y-78245000D03*
D13*
X136250000Y-78245000D03*
X137250000Y-78245000D03*
X138750000Y-78245000D03*
X139750000Y-78245000D03*
D12*
X140400000Y-78245000D03*
X141200000Y-78245000D03*
D14*
X142320000Y-77605000D03*
D15*
X142320000Y-73425000D03*
D14*
X133680000Y-77605000D03*
D15*
X133680000Y-73425000D03*
%TD*%
D16*
%TO.C,USB3*%
X136017500Y-95937500D03*
D17*
X138517500Y-95937500D03*
X140517500Y-95937500D03*
X143017500Y-95937500D03*
D18*
X146517500Y-98637500D03*
X132517500Y-98637500D03*
%TD*%
D10*
%TO.C,C1*%
X158700000Y-95500000D03*
X162300000Y-95500000D03*
%TD*%
D19*
%TO.C,D1*%
X156812500Y-86000000D03*
X161187500Y-86000000D03*
%TD*%
D20*
%TO.C,R2*%
X144587500Y-75000000D03*
X146412500Y-75000000D03*
%TD*%
%TO.C,R1*%
X148500000Y-72000000D03*
X150325000Y-72000000D03*
%TD*%
D16*
%TO.C,USB2*%
X118517500Y-95937500D03*
D17*
X121017500Y-95937500D03*
X123017500Y-95937500D03*
X125517500Y-95937500D03*
D18*
X129017500Y-98637500D03*
X115017500Y-98637500D03*
%TD*%
D10*
%TO.C,C3*%
X137900000Y-90000000D03*
X141500000Y-90000000D03*
%TD*%
D21*
%TO.C,USB1*%
X167500000Y-87500000D03*
X167500000Y-83000000D03*
D22*
X165500000Y-81750000D03*
D23*
X165500000Y-84250000D03*
X165500000Y-86250000D03*
X165500000Y-88750000D03*
D24*
X167500000Y-79450000D03*
X167500000Y-91050000D03*
%TD*%
D25*
%TO.C,U1*%
X155180000Y-71920000D03*
X155180000Y-73200000D03*
X155180000Y-74470000D03*
X155180000Y-75740000D03*
X155180000Y-77000000D03*
X155180000Y-78270000D03*
X155180000Y-79540000D03*
X155180000Y-80820000D03*
X160920000Y-80820000D03*
X160920000Y-79540000D03*
X160920000Y-78270000D03*
X160920000Y-77000000D03*
X160920000Y-75740000D03*
X160920000Y-74470000D03*
X160920000Y-73200000D03*
X160920000Y-71920000D03*
%TD*%
M02*
